# xmcd
#
# Track frame offsets:
#	150
#	14437
#	23412
#	41227
#	59660
#	72512
#	93394
#	108104
#	127408
#	149733
#	166380
#	182067
#	202633
#	220048
#	235164
#	250859
#	269472
#	289841
#	304322
#	319992
#	335539
#	353889
#
# Disc length: 4805 seconds
#
# Revision: 0
# Processed by: cddbd v1.5.2PL0 Copyright (c) Steve Scherf et al.
# Submitted via: EasyCDDAExtractor 8.2.3.1
#
DISCID=5912c316
DTITLE=Various Artist - Zydeco Kings  CD-2  
DYEAR=2005
DGENRE=Blues
TTITLE0=CHUBBY CARRIER - Zydeco's the Way To Go
TTITLE1=L.C.DONATTO&The ZYDECO SLIPPERS - Oh Mama
TTITLE2=C.J.CHENIER - You Used To Call Me
TTITLE3=GENO DeLAFOSE - Les Flammes D'Enter
TTITLE4=CLIFTON CHENIER - The Things I Did For You
TTITLE5=ZYDECO BON! - Rhythm Of Da Zydeco
TTITLE6=C.J.CHENIER - Squeaky Wheel
TTITLE7=GENO DeLAFOSE - Le Bluerunner
TTITLE8=CHUBBY CARRIER - The Cisco Kid
TTITLE9=RADIO KINGS - Tell Me When
TTITLE10=C.J.CHENIER - Part Time Woman
TTITLE11=CLIFTON CHENIER - Brown Skinned Woman
TTITLE12=GENO DeLAFOSE - Can I Change My Mind
TTITLE13=BILL SIMS - When Do I Get to Be Called a Man
TTITLE14=C.J.CHENIER - Mixed Up and Confused
TTITLE15=CHUBBY CARRIER - Rockin' In the Cradle Of the South
TTITLE16=GENO DeLAFOSE - He Haw Breakdown
TTITLE17=L.C.DONATTO&The ZYDECO SLIPPERS - Lucille
TTITLE18=C.J.CHENIER - I'm Not Guilty
TTITLE19=ZYDECO BON! - Erin Stomp
TTITLE20=PORCHDOGS CAJUN ZYDECO BAND - Fido on the Bayou
TTITLE21=GENO DeLAFOSE - To Be Continued
EXTD=
EXTT0=
EXTT1=
EXTT2=
EXTT3=
EXTT4=
EXTT5=
EXTT6=
EXTT7=
EXTT8=
EXTT9=
EXTT10=
EXTT11=
EXTT12=
EXTT13=
EXTT14=
EXTT15=
EXTT16=
EXTT17=
EXTT18=
EXTT19=
EXTT20=
EXTT21=
PLAYORDER=
